<?xml version="1.0" encoding="utf-8"?>
<!-- Generator: Adobe Illustrator 26.0.2, SVG Export Plug-In . SVG Version: 6.00 Build 0)  -->
<svg version="1.1" id="Capa_1" xmlns="http://www.w3.org/2000/svg" xmlns:xlink="http://www.w3.org/1999/xlink" x="0px" y="0px"
	 viewBox="0 0 1055.4 547.9" style="enable-background:new 0 0 1055.4 547.9;" xml:space="preserve">
<style type="text/css">
	.st0{fill-rule:evenodd;clip-rule:evenodd;fill:url(#SVGID_1_);}
	.st1{opacity:0.15;fill-rule:evenodd;clip-rule:evenodd;fill:#6E95CE;enable-background:new    ;}
	.st2{fill:#FFFFFF;}
	.st3{fill-rule:evenodd;clip-rule:evenodd;fill:#FFFFFF;}
	.st4{fill-rule:evenodd;clip-rule:evenodd;fill:#121C3F;}
</style>
<g>
	<g>
		<g>
			<path d="M486.4,245.6c-11.9,0-22.6-2.9-32.1-8.8c-9.5-5.9-16.8-14.2-21.8-24.8l24.5-11.8c6.1,12.2,15.9,18.4,29.4,18.4
				c18.4,0,27.5-11.7,27.5-35.1V78.1h28v108.5c0,8.9-1.1,16.9-3.4,24c-2.3,7.1-5.2,12.8-8.8,17.1c-3.6,4.3-7.9,7.9-12.9,10.6
				c-5,2.8-10,4.7-15,5.8C496.9,245.1,491.7,245.6,486.4,245.6z"/>
			<path d="M724.3,242.8h-28.2v-87.5c0-7.2,0.3-13.8,0.9-19.8c-1.9,5.6-4.4,12.4-7.5,20.2l-40,89.9l-40-90.4
				c-2.8-6.3-5.4-12.9-7.8-19.8c0.6,6,0.9,12.6,0.9,19.8v87.5h-28.2V78.1h28.5l42.4,96.7c1.7,4.4,3.2,8.5,4.5,12.2
				c1.2-3.8,2.7-7.9,4.5-12.2l42.6-96.7h27.5L724.3,242.8L724.3,242.8z"/>
			<path d="M758,78.1h67.3c18.4,0,31.7,4.2,40.1,12.5c8.4,8.3,12.6,18.8,12.6,31.5c0,15.7-7.1,27-21.2,33.9
				c9.1,3.3,15.9,8.4,20.4,15.4c4.5,7,6.7,14.6,6.7,22.7c0,13.2-4.5,24.6-13.5,34.2s-22.9,14.5-41.5,14.5H758L758,78.1L758,78.1z
				 M821.5,144.4c9.1,0,16-1.8,20.8-5.4c4.8-3.6,7.2-8.6,7.2-14.8c0-13.3-7.8-20-23.5-20h-39.8v40.2L821.5,144.4L821.5,144.4z
				 M830.5,216.7c8.8,0,15.1-2.1,19-6.5c3.8-4.3,5.8-9.5,5.8-15.4c0-16.2-10.5-24.2-31.5-24.2h-37.4v46.1L830.5,216.7L830.5,216.7z"
				/>
		</g>
	</g>
	<g>
		<g>
			<path d="M443.3,361.3L431.8,305h7.3l6.9,36.7c0.5,2.4,0.8,4.4,1,6c0,0,0.5-2,1.5-6l10-36.8h5.5l10,36.7c0.6,2.4,1.1,4.2,1.3,5.5
				c0.2-1.4,0.6-3.2,1-5.5l7.6-36.6h7.2l-12.2,56.3h-5.5l-10.9-38.4c-0.8-3-1.3-4.8-1.5-5.5c-0.3,1.5-0.7,3.3-1.4,5.5L449,361.3
				L443.3,361.3L443.3,361.3z"/>
			<path d="M532.9,361.3l-4.8-13.8h-22.3l-4.7,13.8h-7.3l19.9-56.3h6.5l19.9,56.3H532.9z M525.9,341.4l-7.2-20.8
				c-0.9-2.6-1.5-4.5-1.8-5.7c-0.6,2.1-1.2,4-1.8,5.7l-7.3,20.8H525.9z"/>
			<path d="M561.1,311.7v49.6h-7v-49.6h-15.7V305h38.4v6.7L561.1,311.7L561.1,311.7z"/>
			<path d="M586.6,361.3V305h33.5v6.6h-26.5v17.3h17.5v6.6h-17.5v19.1h28.2v6.7L586.6,361.3L586.6,361.3z"/>
			<path d="M632.4,361.3V305h22.2c6.2,0,10.7,1.5,13.5,4.6c2.8,3.1,4.2,6.9,4.2,11.4c0,3.7-1.1,7-3.3,9.9c-2.2,2.9-5.5,4.8-9.8,5.8
				l12.1,24.6h-7.9l-11.6-24.1h-12.5v24.1H632.4z M639.4,330.7h15.4c3.6,0,6.3-0.9,8-2.7s2.5-4.1,2.5-6.8c0-2.6-0.8-4.8-2.5-6.8
				c-1.6-1.9-4.3-2.9-8.1-2.9h-15.4V330.7z"/>
			<path d="M683.6,361.3V305h21.5c3.3,0,6.1,0.5,8.6,1.5s4.3,2.3,5.7,3.9c1.3,1.6,2.3,3.4,3,5.4c0.6,1.9,1,4,1,6.2
				c0,4.5-1.5,8.4-4.5,11.7c-3,3.4-7.6,5.1-13.6,5.1h-14.5v22.6H683.6z M705.6,332.2c3.6,0,6.3-1,8.1-3.1s2.6-4.5,2.6-7.2
				c0-2.7-0.8-5.1-2.5-7.2s-4.4-3.1-8.2-3.1h-15v20.7L705.6,332.2L705.6,332.2z"/>
			<path d="M731.9,361.3V305h22.2c6.2,0,10.7,1.5,13.5,4.6c2.8,3.1,4.2,6.9,4.2,11.4c0,3.7-1.1,7-3.3,9.9c-2.2,2.9-5.5,4.8-9.8,5.8
				l12.1,24.6h-7.9l-11.6-24.1h-12.4v24.1H731.9z M738.9,330.7h15.4c3.6,0,6.3-0.9,8-2.7s2.5-4.1,2.5-6.8c0-2.6-0.8-4.8-2.5-6.8
				c-1.6-1.9-4.3-2.9-8.1-2.9h-15.4V330.7z"/>
			<path d="M804.5,362.3c-4.2,0-8-0.8-11.1-2.5s-5.7-4-7.5-6.8c-1.8-2.9-3.1-6-4-9.2s-1.3-6.8-1.3-10.5c0-3.7,0.4-7.2,1.3-10.5
				c0.9-3.3,2.2-6.4,4-9.2c1.8-2.9,4.3-5.1,7.5-6.8s6.9-2.5,11.1-2.5c3.4,0,6.5,0.6,9.3,1.7c2.8,1.1,5,2.6,6.8,4.5
				c1.8,1.9,3.3,4.1,4.5,6.7c1.2,2.6,2.1,5.2,2.6,7.9s0.8,5.5,0.8,8.4c0,2.9-0.2,5.7-0.8,8.4s-1.4,5.3-2.6,7.9
				c-1.2,2.6-2.7,4.8-4.5,6.7c-1.8,1.9-4.1,3.4-6.8,4.5S807.9,362.3,804.5,362.3z M796.8,353.8c2.2,1.3,4.8,1.9,7.8,1.9
				s5.5-0.7,7.8-2s4-3.2,5.2-5.4c1.2-2.2,2.1-4.6,2.7-7.2c0.6-2.5,0.9-5.2,0.9-7.8c0-4-0.5-7.6-1.5-10.8c-1-3.2-2.8-6-5.4-8.3
				c-2.6-2.3-5.9-3.5-9.8-3.5c-3,0-5.5,0.7-7.8,2c-2.2,1.4-4,3.2-5.2,5.5s-2.2,4.7-2.8,7.2c-0.6,2.5-0.9,5.1-0.9,7.9
				c0,2.9,0.3,5.6,0.9,8.2s1.5,5,2.8,7.2C792.8,350.7,794.5,352.5,796.8,353.8z"/>
			<path d="M860.9,362.3c-4.2,0-8-0.8-11.1-2.5s-5.7-4-7.5-6.8c-1.8-2.9-3.1-6-4-9.2s-1.3-6.8-1.3-10.5c0-3.7,0.4-7.2,1.3-10.5
				c0.9-3.3,2.2-6.4,4-9.2c1.8-2.9,4.3-5.1,7.5-6.8s6.9-2.5,11.1-2.5c3.4,0,6.5,0.6,9.3,1.7c2.8,1.1,5,2.6,6.8,4.5
				c1.8,1.9,3.3,4.1,4.5,6.7c1.2,2.6,2.1,5.2,2.6,7.9c0.5,2.7,0.8,5.5,0.8,8.4c0,2.9-0.2,5.7-0.8,8.4s-1.4,5.3-2.6,7.9
				c-1.2,2.6-2.7,4.8-4.5,6.7c-1.8,1.9-4.1,3.4-6.8,4.5S864.3,362.3,860.9,362.3z M853.1,353.8c2.2,1.3,4.8,1.9,7.8,1.9
				s5.5-0.7,7.8-2s4-3.2,5.2-5.4c1.2-2.2,2.1-4.6,2.7-7.2c0.6-2.5,0.9-5.2,0.9-7.8c0-4-0.5-7.6-1.5-10.8c-1-3.2-2.8-6-5.4-8.3
				c-2.6-2.3-5.9-3.5-9.8-3.5c-3,0-5.5,0.7-7.8,2c-2.2,1.4-4,3.2-5.2,5.5s-2.2,4.7-2.8,7.2c-0.6,2.5-0.9,5.1-0.9,7.9
				c0,2.9,0.3,5.6,0.9,8.2s1.5,5,2.8,7.2C849.2,350.7,850.9,352.5,853.1,353.8z"/>
			<path d="M895.8,361.3V305h33.8v6.6h-26.9v17.3h17.8v6.6h-17.8v25.8L895.8,361.3L895.8,361.3z"/>
			<path d="M938.8,361.3V305h7v56.3H938.8z"/>
			<path d="M1000.6,361.3h-6.8l-25.3-40.2c-1-1.5-1.7-2.9-2.2-3.9c0.1,1.6,0.2,2.9,0.2,3.9v40.2h-7V305h7.1l24.9,40
				c0.9,1.4,1.6,2.8,2.3,4.2c-0.1-1.9-0.2-3.3-0.2-4.1V305h7V361.3z"/>
			<path d="M1035.5,362.3c-4.1,0-7.8-0.8-10.9-2.5s-5.6-3.9-7.5-6.6c-1.8-2.8-3.2-5.9-4.1-9.2s-1.4-7-1.4-10.8
				c0-3.8,0.5-7.3,1.4-10.7c1-3.4,2.4-6.5,4.3-9.2s4.4-5,7.5-6.6s6.7-2.5,10.7-2.5c4.8,0,8.5,0.9,11.3,2.6s5.1,4.2,7,7.2l-6.3,3.6
				c-1.5-2.2-3.2-3.9-5-5.1c-1.8-1.2-4.2-1.8-7-1.8c-2.4,0-4.6,0.5-6.5,1.4s-3.5,2.1-4.7,3.6c-1.2,1.5-2.3,3.2-3.1,5.2
				c-0.8,2-1.4,4-1.8,6.1s-0.5,4.2-0.5,6.3c0,6.3,1.4,11.6,4.2,16c2.8,4.3,6.9,6.5,12.5,6.5c3.8,0,6.9-1.2,9.2-3.6
				c2.3-2.4,3.5-5.5,3.5-9.4v-2.2h-10.2V334h17.5v6.8c0,6.8-1.9,12.1-5.6,15.9C1046.1,360.4,1041.3,362.3,1035.5,362.3z"/>
			<path d="M452.1,458.8c-4.8,0-8.9-1.2-12.4-3.5s-5.9-5.3-7.2-9l6.6-2.4c1.2,2.6,2.9,4.6,5.2,6.1c2.3,1.5,5,2.2,8,2.2
				c3.4,0,6.1-0.8,8.1-2.5c2-1.6,3-4,3-7c0-3-1.1-5.3-3.3-7.1c-2.2-1.8-5.3-3.4-9.4-4.8c-1.9-0.7-3.5-1.3-4.8-1.8s-2.7-1.3-4.3-2.3
				c-1.6-1-2.9-2-3.9-3c-1-1-1.8-2.4-2.5-3.9s-1-3.3-1-5.2c0-3.9,1.5-7.2,4.7-9.9s7.3-4,12.6-4c4.3,0,8,0.9,10.9,2.8
				c2.9,1.8,4.8,4.3,5.6,7.3l-6.4,2.2c-0.8-1.7-2-3-3.9-4.1c-1.8-1.1-4-1.6-6.7-1.6c-3,0-5.3,0.7-7,2c-1.7,1.3-2.6,3.1-2.6,5.4
				c0,1.2,0.3,2.4,0.9,3.4s1.6,1.9,2.9,2.7c1.3,0.8,2.5,1.5,3.7,1.9c1.1,0.5,2.7,1.1,4.7,1.8c2.5,0.9,4.5,1.8,6.1,2.6
				c1.6,0.8,3.3,1.9,5.2,3.3s3.3,3.1,4.3,5.2c1,2.1,1.5,4.4,1.5,7c0,5-1.7,9-5.1,11.9C462,457.3,457.5,458.8,452.1,458.8z"/>
			<path d="M503,458.8c-4.2,0-8-0.8-11.1-2.5s-5.7-4-7.5-6.8c-1.8-2.9-3.1-6-4-9.2s-1.3-6.8-1.3-10.5c0-3.7,0.4-7.2,1.3-10.5
				c0.9-3.3,2.2-6.4,4-9.2c1.8-2.9,4.3-5.2,7.5-6.8s6.9-2.5,11.1-2.5c3.4,0,6.5,0.6,9.3,1.7c2.8,1.1,5,2.6,6.8,4.5
				c1.8,1.9,3.3,4.1,4.5,6.7c1.2,2.6,2.1,5.2,2.6,7.9s0.8,5.5,0.8,8.4s-0.2,5.7-0.8,8.4s-1.4,5.3-2.6,7.9c-1.2,2.6-2.7,4.8-4.5,6.7
				c-1.8,1.9-4.1,3.4-6.8,4.5C509.5,458.2,506.4,458.8,503,458.8z M495.2,450.3c2.2,1.3,4.8,1.9,7.8,1.9s5.5-0.7,7.8-2
				s4-3.2,5.2-5.4c1.2-2.2,2.1-4.7,2.7-7.2c0.6-2.5,0.9-5.2,0.9-7.8c0-4-0.5-7.6-1.5-10.8c-1-3.2-2.8-6-5.4-8.3
				c-2.6-2.3-5.9-3.5-9.8-3.5c-3,0-5.5,0.7-7.8,2c-2.2,1.4-4,3.2-5.2,5.5c-1.2,2.3-2.2,4.7-2.8,7.2c-0.6,2.5-0.9,5.2-0.9,7.9
				c0,2.9,0.3,5.6,0.9,8.2s1.5,5,2.8,7.2C491.3,447.2,493,449,495.2,450.3z"/>
			<path d="M537.9,457.8v-56.3h7v49.5h27.7v6.8H537.9z"/>
			<path d="M600.3,458.8c-13.5,0-20.2-7.4-20.2-22.1v-35.1h7v35.1c0,5.7,1.2,9.8,3.5,12.1c2.4,2.3,5.6,3.5,9.7,3.5s7.3-1.2,9.7-3.5
				c2.4-2.3,3.6-6.3,3.6-12.1v-35.1h7v35.1C620.5,451.4,613.8,458.8,600.3,458.8z"/>
			<path d="M652.6,408.2v49.6h-7v-49.6h-15.7v-6.7h38.4v6.7H652.6z"/>
			<path d="M678.3,457.8v-56.3h7v56.3H678.3z"/>
			<path d="M720.3,458.8c-4.2,0-8-0.8-11.1-2.5s-5.7-4-7.5-6.8c-1.8-2.9-3.1-6-4-9.2s-1.3-6.8-1.3-10.5c0-3.7,0.4-7.2,1.3-10.5
				c0.9-3.3,2.2-6.4,4-9.2c1.8-2.9,4.3-5.2,7.5-6.8s6.9-2.5,11.1-2.5c3.4,0,6.5,0.6,9.3,1.7c2.8,1.1,5,2.6,6.8,4.5
				c1.8,1.9,3.3,4.1,4.5,6.7c1.2,2.6,2.1,5.2,2.6,7.9s0.8,5.5,0.8,8.4s-0.2,5.7-0.8,8.4s-1.4,5.3-2.6,7.9c-1.2,2.6-2.7,4.8-4.5,6.7
				c-1.8,1.9-4.1,3.4-6.8,4.5C726.9,458.2,723.8,458.8,720.3,458.8z M712.6,450.3c2.2,1.3,4.8,1.9,7.8,1.9s5.5-0.7,7.8-2
				s4-3.2,5.2-5.4c1.2-2.2,2.1-4.7,2.7-7.2c0.6-2.5,0.9-5.2,0.9-7.8c0-4-0.5-7.6-1.5-10.8c-1-3.2-2.8-6-5.4-8.3
				c-2.6-2.3-5.9-3.5-9.8-3.5c-3,0-5.5,0.7-7.8,2c-2.2,1.4-4,3.2-5.2,5.5c-1.2,2.3-2.2,4.7-2.8,7.2c-0.6,2.5-0.9,5.2-0.9,7.9
				c0,2.9,0.3,5.6,0.9,8.2s1.5,5,2.8,7.2C708.6,447.2,710.3,449,712.6,450.3z"/>
			<path d="M796.4,457.8h-6.8l-25.3-40.2c-1-1.5-1.7-2.9-2.2-3.9c0.1,1.6,0.2,2.9,0.2,3.9v40.2h-7v-56.3h7.1l24.9,40.1
				c0.9,1.4,1.6,2.8,2.3,4.2c-0.1-1.9-0.2-3.3-0.2-4.1v-40.1h7V457.8z"/>
			<path d="M826.2,458.8c-4.8,0-8.9-1.2-12.4-3.5s-5.9-5.3-7.2-9l6.6-2.4c1.2,2.6,2.9,4.6,5.2,6.1c2.3,1.5,5,2.2,8,2.2
				c3.4,0,6.1-0.8,8.1-2.5c2-1.6,3-4,3-7c0-3-1.1-5.3-3.3-7.1c-2.2-1.8-5.3-3.4-9.4-4.8c-1.9-0.7-3.5-1.3-4.8-1.8s-2.7-1.3-4.3-2.3
				c-1.6-1-2.9-2-3.9-3c-1-1-1.8-2.4-2.5-3.9s-1-3.3-1-5.2c0-3.9,1.5-7.2,4.7-9.9s7.3-4,12.6-4c4.3,0,8,0.9,10.9,2.8
				c2.9,1.8,4.8,4.3,5.6,7.3l-6.4,2.2c-0.8-1.7-2-3-3.9-4.1c-1.8-1.1-4-1.6-6.7-1.6c-3,0-5.3,0.7-7,2c-1.7,1.3-2.6,3.1-2.6,5.4
				c0,1.2,0.3,2.4,0.9,3.4s1.6,1.9,2.9,2.7c1.3,0.8,2.5,1.5,3.7,1.9c1.1,0.5,2.7,1.1,4.7,1.8c2.5,0.9,4.5,1.8,6.1,2.6
				c1.6,0.8,3.3,1.9,5.2,3.3s3.3,3.1,4.3,5.2c1,2.1,1.5,4.4,1.5,7c0,5-1.7,9-5.1,11.9C836.1,457.3,831.7,458.8,826.2,458.8z"/>
		</g>
	</g>
	<g>
		
			<linearGradient id="SVGID_1_" gradientUnits="userSpaceOnUse" x1="168.7339" y1="542.1495" x2="168.7339" y2="5.9769" gradientTransform="matrix(1 0 0 -1 0 549.88)">
			<stop  offset="0" style="stop-color:#00386E"/>
			<stop  offset="1" style="stop-color:#002242"/>
		</linearGradient>
		<path class="st0" d="M336.9,357.9C325.5,192.7,232.4,180.6,168.7,0C105,180.6,11.9,192.7,0.6,357.9
			C-16.8,611.2,354.3,611.2,336.9,357.9z"/>
		<path class="st1" d="M184.4,96.6c56.9,109.1,122,142.9,130.5,268.3C322.6,477.5,236,527.2,160.4,514
			c59.8-10.4,112.6-60.1,106.5-149.1C259.2,250.3,212,221.9,184.4,96.6z"/>
		<path class="st2" d="M322.8,451c-8.6,0-18.1,0-27.3,0c-70,0-125.9-0.1-195.9-0.2c-2.6,0-5.3,0.1-7.9-0.2c-5.2-0.6-8.4-3.7-9.4-8.8
			c-0.4-2.3-0.6-4.6-0.6-6.9c0.2-12.2,0.8-24.4,0.8-36.5c0-17.8-0.4-35.5-0.6-53.6c-3.5-0.3-5.7-0.5-9-0.8c0,12.8,0,25.2,0,38.3
			l-0.3,5.7c0.2,9.9,0,14,0,23.1c-0.7,8.9,0.4,17.9-0.3,26.8c-1.1,13.2,9.5,23,22.9,22.8c16.5-0.3,33.1,0,49.6,0
			c59.2,0,104.3,0,163.5,0c2.9,0,6.6,0,9.8,0C318.3,460.6,320.6,456.2,322.8,451z"/>
		<path class="st2" d="M72.6,173c0,8.6,0,17.1,0,25.7c0,49.9,0.1,64.6-0.2,114.5c-0.1,8.9,2.5,16,8.8,22.1
			c5.7,5.5,10.7,11.7,16.3,17.3c4,4,5.7,8.5,5.6,14.2c-0.2,15.9-0.2,31.7-0.1,47.6c0,3.6,0.2,7.3,1,10.8c2.2,10,9.6,16.2,19.8,16.2
			c29,0.2,58,0.1,87,0.1c10.5,0,21,0,32,0c0-3.3,0-5.7,0-8.8c-2.8-0.2-5.4-0.5-7.9-0.5c-35.1,0-70.1,0-105.2-0.1
			c-13.5,0-17-3.5-17.1-17c-0.1-16.2-0.2-32.4,0.1-48.6c0.2-8.2-2.6-14.7-8.2-20.5c-5.8-5.9-11.1-12.3-17-18.1
			c-4.1-4-5.8-8.4-5.8-14.1c0.1-16.5-0.2-33.1-0.2-49.6c0-39.4,0-54,0-93.3c0-3.6,0-7.2,0-10.6"/>
		<g>
			<path class="st3" d="M149.5,381.1c1.3-18.4,12.1-19.7,19.5-39.8c7.4,20.1,18.1,21.4,19.5,39.8
				C190.4,409.3,147.5,409.3,149.5,381.1z"/>
			<path class="st4" d="M168.8,351.9c-6.6,12-14.1,15.8-15.1,29.6c-0.9,12.4,9.1,17.9,17.9,16.5c-6.9-1.1-13-6.6-12.3-16.5
				C160.1,368.9,165.6,365.8,168.8,351.9z"/>
		</g>
	</g>
</g>
</svg>
